<svg width="413" height="292" viewBox="0 0 413 292" fill="none" xmlns="http://www.w3.org/2000/svg">
<mask id="path-1-outside-1_483:138" maskUnits="userSpaceOnUse" x="0.204346" y="0.350586" width="412" height="292" fill="black">
<rect fill="white" x="0.204346" y="0.350586" width="412" height="292"/>
<path d="M272.766 60.7612L139.427 60.2383L152.393 17.1011C153.428 13.7121 155.521 10.7433 158.364 8.62903C161.208 6.51473 164.653 5.3659 168.197 5.35059H168.26L244.365 5.64941C247.919 5.67891 251.37 6.84862 254.21 8.98636C257.049 11.1241 259.128 14.117 260.139 17.5244L272.766 60.7612Z"/>
<path d="M390.204 287H22.2043C17.6972 286.995 13.3761 285.202 10.1891 282.015C7.00207 278.828 5.20942 274.507 5.20435 270V76C5.20942 71.4929 7.00207 67.1718 10.1891 63.9848C13.3761 60.7978 17.6972 59.0051 22.2043 59H390.204C394.711 59.0051 399.033 60.7978 402.22 63.9848C405.407 67.1718 407.199 71.4929 407.204 76V270C407.199 274.507 405.407 278.828 402.22 282.015C399.033 285.202 394.711 286.995 390.204 287ZM22.2043 61C18.2275 61.0045 14.4147 62.5863 11.6027 65.3984C8.79059 68.2104 7.20885 72.0231 7.20435 76V270C7.20885 273.977 8.79059 277.79 11.6027 280.602C14.4147 283.414 18.2275 284.996 22.2043 285H390.204C394.181 284.996 397.994 283.414 400.806 280.602C403.618 277.79 405.2 273.977 405.204 270V76C405.2 72.0231 403.618 68.2104 400.806 65.3984C397.994 62.5863 394.181 61.0045 390.204 61H22.2043Z"/>
<path d="M222.204 44.5H190.204C187.95 44.5 185.788 43.6045 184.194 42.0104C182.6 40.4163 181.704 38.2543 181.704 36C181.704 33.7457 182.6 31.5837 184.194 29.9896C185.788 28.3955 187.95 27.5 190.204 27.5H222.204C224.459 27.5 226.621 28.3955 228.215 29.9896C229.809 31.5837 230.704 33.7457 230.704 36C230.704 38.2543 229.809 40.4163 228.215 42.0104C226.621 43.6045 224.459 44.5 222.204 44.5Z"/>
<path d="M206.204 249C191.173 249 176.479 244.543 163.981 236.192C151.483 227.841 141.742 215.971 135.99 202.084C130.237 188.197 128.732 172.916 131.665 158.173C134.597 143.431 141.836 129.889 152.464 119.26C163.093 108.631 176.635 101.393 191.378 98.4604C206.12 95.5279 221.401 97.0329 235.288 102.785C249.176 108.537 261.045 118.279 269.396 130.777C277.747 143.275 282.204 157.969 282.204 173C282.182 193.149 274.167 212.467 259.919 226.715C245.672 240.963 226.354 248.977 206.204 249ZM206.204 99C191.569 99 177.261 103.34 165.092 111.471C152.923 119.603 143.438 131.16 137.837 144.681C132.236 158.203 130.771 173.082 133.626 187.437C136.482 201.791 143.529 214.977 153.878 225.326C164.228 235.675 177.413 242.723 191.768 245.578C206.122 248.433 221.001 246.968 234.523 241.367C248.045 235.766 259.602 226.281 267.733 214.112C275.864 201.943 280.204 187.636 280.204 173C280.182 153.381 272.379 134.572 258.506 120.699C244.633 106.826 225.824 99.0222 206.204 99Z"/>
<path d="M206.204 223C196.315 223 186.648 220.068 178.426 214.573C170.203 209.079 163.795 201.27 160.01 192.134C156.226 182.998 155.236 172.945 157.165 163.245C159.094 153.546 163.856 144.637 170.849 137.645C177.841 130.652 186.751 125.89 196.45 123.961C206.149 122.032 216.202 123.022 225.338 126.806C234.475 130.59 242.284 136.999 247.778 145.221C253.272 153.444 256.204 163.111 256.204 173C256.189 186.256 250.917 198.965 241.543 208.339C232.169 217.712 219.46 222.985 206.204 223ZM206.204 125C196.711 125 187.43 127.815 179.537 133.089C171.643 138.364 165.491 145.86 161.858 154.631C158.225 163.402 157.274 173.053 159.126 182.364C160.979 191.675 165.55 200.228 172.263 206.941C178.976 213.654 187.529 218.226 196.84 220.078C206.151 221.93 215.802 220.979 224.573 217.346C233.344 213.713 240.84 207.561 246.115 199.667C251.389 191.774 254.204 182.494 254.204 173C254.19 160.274 249.128 148.073 240.129 139.075C231.131 130.076 218.93 125.014 206.204 125Z"/>
<path d="M206.204 211C227.191 211 244.204 193.987 244.204 173C244.204 152.013 227.191 135 206.204 135C185.218 135 168.204 152.013 168.204 173C168.204 193.987 185.218 211 206.204 211Z"/>
<path d="M183.204 173C183.205 166.976 185.381 161.156 189.331 156.608C193.281 152.061 198.74 149.093 204.704 148.249C201.159 147.745 197.548 148.008 194.113 149.021C190.679 150.034 187.503 151.772 184.798 154.119C182.094 156.466 179.926 159.366 178.44 162.623C176.954 165.881 176.185 169.42 176.185 173C176.185 176.58 176.954 180.119 178.44 183.377C179.926 186.634 182.094 189.534 184.798 191.881C187.503 194.228 190.679 195.966 194.113 196.979C197.548 197.992 201.159 198.255 204.704 197.751C198.74 196.907 193.281 193.939 189.331 189.392C185.381 184.844 183.205 179.023 183.204 173Z"/>
<path d="M372.204 61H322.204V60C322.204 53.3696 324.838 47.0107 329.527 42.3223C334.215 37.6339 340.574 35 347.204 35C353.835 35 360.194 37.6339 364.882 42.3223C369.57 47.0107 372.204 53.3696 372.204 60V61ZM324.226 59H370.183C369.925 53.0788 367.391 47.4857 363.11 43.387C358.829 39.2883 353.131 37.0004 347.204 37.0004C341.277 37.0004 335.579 39.2883 331.298 43.387C327.017 47.4857 324.484 53.0788 324.226 59Z"/>
<path d="M30.2044 89C28.2266 89 26.2931 88.4135 24.6486 87.3147C23.0041 86.2159 21.7224 84.6541 20.9655 82.8268C20.2087 80.9996 20.0107 78.9889 20.3965 77.0491C20.7824 75.1093 21.7347 73.3275 23.1333 71.929C24.5318 70.5304 26.3136 69.578 28.2534 69.1921C30.1932 68.8063 32.2039 69.0044 34.0311 69.7612C35.8584 70.5181 37.4202 71.7998 38.5191 73.4443C39.6179 75.0888 40.2044 77.0222 40.2044 79C40.2014 81.6512 39.1468 84.193 37.2721 86.0677C35.3974 87.9425 32.8556 88.997 30.2044 89ZM30.2044 71C28.6221 71 27.0754 71.4692 25.7598 72.3483C24.4442 73.2273 23.4188 74.4767 22.8133 75.9385C22.2078 77.4004 22.0494 79.0089 22.3581 80.5607C22.6667 82.1126 23.4287 83.538 24.5475 84.6569C25.6663 85.7757 27.0918 86.5376 28.6436 86.8463C30.1955 87.155 31.804 86.9966 33.2658 86.3911C34.7276 85.7856 35.977 84.7602 36.8561 83.4446C37.7351 82.129 38.2044 80.5823 38.2044 79C38.2019 76.879 37.3583 74.8456 35.8585 73.3458C34.3588 71.8461 32.3254 71.0024 30.2044 71Z"/>
<path d="M30.2043 84C32.9658 84 35.2043 81.7614 35.2043 79C35.2043 76.2386 32.9658 74 30.2043 74C27.4429 74 25.2043 76.2386 25.2043 79C25.2043 81.7614 27.4429 84 30.2043 84Z"/>
<path d="M56.2043 84C58.9658 84 61.2043 81.7614 61.2043 79C61.2043 76.2386 58.9658 74 56.2043 74C53.4429 74 51.2043 76.2386 51.2043 79C51.2043 81.7614 53.4429 84 56.2043 84Z"/>
<path d="M82.2043 84C84.9658 84 87.2043 81.7614 87.2043 79C87.2043 76.2386 84.9658 74 82.2043 74C79.4429 74 77.2043 76.2386 77.2043 79C77.2043 81.7614 79.4429 84 82.2043 84Z"/>
<path d="M56.2044 89C54.2266 89 52.2931 88.4135 50.6486 87.3147C49.0041 86.2159 47.7224 84.6541 46.9655 82.8268C46.2087 80.9996 46.0107 78.9889 46.3965 77.0491C46.7824 75.1093 47.7347 73.3275 49.1333 71.929C50.5318 70.5304 52.3136 69.578 54.2534 69.1921C56.1932 68.8063 58.2039 69.0044 60.0311 69.7612C61.8584 70.5181 63.4202 71.7998 64.5191 73.4443C65.6179 75.0888 66.2044 77.0222 66.2044 79C66.2014 81.6512 65.1468 84.193 63.2721 86.0677C61.3974 87.9425 58.8556 88.997 56.2044 89ZM56.2044 71C54.6221 71 53.0754 71.4692 51.7598 72.3483C50.4442 73.2273 49.4188 74.4767 48.8133 75.9385C48.2078 77.4004 48.0494 79.0089 48.3581 80.5607C48.6667 82.1126 49.4287 83.538 50.5475 84.6569C51.6663 85.7757 53.0918 86.5376 54.6436 86.8463C56.1955 87.155 57.804 86.9966 59.2658 86.3911C60.7276 85.7856 61.977 84.7602 62.8561 83.4446C63.7351 82.129 64.2044 80.5823 64.2044 79C64.2019 76.879 63.3583 74.8456 61.8585 73.3458C60.3588 71.8461 58.3254 71.0024 56.2044 71Z"/>
<path d="M82.2044 89C80.2266 89 78.2931 88.4135 76.6486 87.3147C75.0042 86.2159 73.7224 84.6541 72.9655 82.8268C72.2087 80.9996 72.0107 78.9889 72.3965 77.0491C72.7824 75.1093 73.7347 73.3275 75.1333 71.929C76.5318 70.5304 78.3136 69.578 80.2534 69.1921C82.1933 68.8063 84.2039 69.0044 86.0312 69.7612C87.8584 70.5181 89.4202 71.7998 90.5191 73.4443C91.6179 75.0888 92.2044 77.0222 92.2044 79C92.2014 81.6512 91.1468 84.193 89.2721 86.0677C87.3974 87.9425 84.8556 88.997 82.2044 89ZM82.2044 71C80.6221 71 79.0754 71.4692 77.7598 72.3483C76.4442 73.2273 75.4188 74.4767 74.8133 75.9385C74.2078 77.4004 74.0494 79.0089 74.3581 80.5607C74.6667 82.1126 75.4287 83.538 76.5475 84.6569C77.6663 85.7757 79.0918 86.5376 80.6436 86.8463C82.1955 87.155 83.804 86.9966 85.2658 86.3911C86.7276 85.7856 87.977 84.7602 88.8561 83.4446C89.7351 82.129 90.2044 80.5823 90.2044 79C90.2019 76.879 89.3583 74.8456 87.8585 73.3458C86.3588 71.8461 84.3254 71.0024 82.2044 71Z"/>
<path d="M136.204 145.874H6.20435V147.874H136.204V145.874Z"/>
<path d="M132.976 186.126H6.20435V188.126H132.976V186.126Z"/>
<path d="M406.204 145.874H276.204V147.874H406.204V145.874Z"/>
<path d="M405.976 186.126H279.204V188.126H405.976V186.126Z"/>
</mask>
<path d="M272.766 60.7612L139.427 60.2383L152.393 17.1011C153.428 13.7121 155.521 10.7433 158.364 8.62903C161.208 6.51473 164.653 5.3659 168.197 5.35059H168.26L244.365 5.64941C247.919 5.67891 251.37 6.84862 254.21 8.98636C257.049 11.1241 259.128 14.117 260.139 17.5244L272.766 60.7612Z" fill="black"/>
<path d="M390.204 287H22.2043C17.6972 286.995 13.3761 285.202 10.1891 282.015C7.00207 278.828 5.20942 274.507 5.20435 270V76C5.20942 71.4929 7.00207 67.1718 10.1891 63.9848C13.3761 60.7978 17.6972 59.0051 22.2043 59H390.204C394.711 59.0051 399.033 60.7978 402.22 63.9848C405.407 67.1718 407.199 71.4929 407.204 76V270C407.199 274.507 405.407 278.828 402.22 282.015C399.033 285.202 394.711 286.995 390.204 287ZM22.2043 61C18.2275 61.0045 14.4147 62.5863 11.6027 65.3984C8.79059 68.2104 7.20885 72.0231 7.20435 76V270C7.20885 273.977 8.79059 277.79 11.6027 280.602C14.4147 283.414 18.2275 284.996 22.2043 285H390.204C394.181 284.996 397.994 283.414 400.806 280.602C403.618 277.79 405.2 273.977 405.204 270V76C405.2 72.0231 403.618 68.2104 400.806 65.3984C397.994 62.5863 394.181 61.0045 390.204 61H22.2043Z" fill="black"/>
<path d="M222.204 44.5H190.204C187.95 44.5 185.788 43.6045 184.194 42.0104C182.6 40.4163 181.704 38.2543 181.704 36C181.704 33.7457 182.6 31.5837 184.194 29.9896C185.788 28.3955 187.95 27.5 190.204 27.5H222.204C224.459 27.5 226.621 28.3955 228.215 29.9896C229.809 31.5837 230.704 33.7457 230.704 36C230.704 38.2543 229.809 40.4163 228.215 42.0104C226.621 43.6045 224.459 44.5 222.204 44.5Z" fill="black"/>
<path d="M206.204 249C191.173 249 176.479 244.543 163.981 236.192C151.483 227.841 141.742 215.971 135.99 202.084C130.237 188.197 128.732 172.916 131.665 158.173C134.597 143.431 141.836 129.889 152.464 119.26C163.093 108.631 176.635 101.393 191.378 98.4604C206.12 95.5279 221.401 97.0329 235.288 102.785C249.176 108.537 261.045 118.279 269.396 130.777C277.747 143.275 282.204 157.969 282.204 173C282.182 193.149 274.167 212.467 259.919 226.715C245.672 240.963 226.354 248.977 206.204 249ZM206.204 99C191.569 99 177.261 103.34 165.092 111.471C152.923 119.603 143.438 131.16 137.837 144.681C132.236 158.203 130.771 173.082 133.626 187.437C136.482 201.791 143.529 214.977 153.878 225.326C164.228 235.675 177.413 242.723 191.768 245.578C206.122 248.433 221.001 246.968 234.523 241.367C248.045 235.766 259.602 226.281 267.733 214.112C275.864 201.943 280.204 187.636 280.204 173C280.182 153.381 272.379 134.572 258.506 120.699C244.633 106.826 225.824 99.0222 206.204 99Z" fill="black"/>
<path d="M206.204 223C196.315 223 186.648 220.068 178.426 214.573C170.203 209.079 163.795 201.27 160.01 192.134C156.226 182.998 155.236 172.945 157.165 163.245C159.094 153.546 163.856 144.637 170.849 137.645C177.841 130.652 186.751 125.89 196.45 123.961C206.149 122.032 216.202 123.022 225.338 126.806C234.475 130.59 242.284 136.999 247.778 145.221C253.272 153.444 256.204 163.111 256.204 173C256.189 186.256 250.917 198.965 241.543 208.339C232.169 217.712 219.46 222.985 206.204 223ZM206.204 125C196.711 125 187.43 127.815 179.537 133.089C171.643 138.364 165.491 145.86 161.858 154.631C158.225 163.402 157.274 173.053 159.126 182.364C160.979 191.675 165.55 200.228 172.263 206.941C178.976 213.654 187.529 218.226 196.84 220.078C206.151 221.93 215.802 220.979 224.573 217.346C233.344 213.713 240.84 207.561 246.115 199.667C251.389 191.774 254.204 182.494 254.204 173C254.19 160.274 249.128 148.073 240.129 139.075C231.131 130.076 218.93 125.014 206.204 125Z" fill="black"/>
<path d="M206.204 211C227.191 211 244.204 193.987 244.204 173C244.204 152.013 227.191 135 206.204 135C185.218 135 168.204 152.013 168.204 173C168.204 193.987 185.218 211 206.204 211Z" fill="black"/>
<path d="M183.204 173C183.205 166.976 185.381 161.156 189.331 156.608C193.281 152.061 198.74 149.093 204.704 148.249C201.159 147.745 197.548 148.008 194.113 149.021C190.679 150.034 187.503 151.772 184.798 154.119C182.094 156.466 179.926 159.366 178.44 162.623C176.954 165.881 176.185 169.42 176.185 173C176.185 176.58 176.954 180.119 178.44 183.377C179.926 186.634 182.094 189.534 184.798 191.881C187.503 194.228 190.679 195.966 194.113 196.979C197.548 197.992 201.159 198.255 204.704 197.751C198.74 196.907 193.281 193.939 189.331 189.392C185.381 184.844 183.205 179.023 183.204 173Z" fill="black"/>
<path d="M372.204 61H322.204V60C322.204 53.3696 324.838 47.0107 329.527 42.3223C334.215 37.6339 340.574 35 347.204 35C353.835 35 360.194 37.6339 364.882 42.3223C369.57 47.0107 372.204 53.3696 372.204 60V61ZM324.226 59H370.183C369.925 53.0788 367.391 47.4857 363.11 43.387C358.829 39.2883 353.131 37.0004 347.204 37.0004C341.277 37.0004 335.579 39.2883 331.298 43.387C327.017 47.4857 324.484 53.0788 324.226 59Z" fill="black"/>
<path d="M30.2044 89C28.2266 89 26.2931 88.4135 24.6486 87.3147C23.0041 86.2159 21.7224 84.6541 20.9655 82.8268C20.2087 80.9996 20.0107 78.9889 20.3965 77.0491C20.7824 75.1093 21.7347 73.3275 23.1333 71.929C24.5318 70.5304 26.3136 69.578 28.2534 69.1921C30.1932 68.8063 32.2039 69.0044 34.0311 69.7612C35.8584 70.5181 37.4202 71.7998 38.5191 73.4443C39.6179 75.0888 40.2044 77.0222 40.2044 79C40.2014 81.6512 39.1468 84.193 37.2721 86.0677C35.3974 87.9425 32.8556 88.997 30.2044 89ZM30.2044 71C28.6221 71 27.0754 71.4692 25.7598 72.3483C24.4442 73.2273 23.4188 74.4767 22.8133 75.9385C22.2078 77.4004 22.0494 79.0089 22.3581 80.5607C22.6667 82.1126 23.4287 83.538 24.5475 84.6569C25.6663 85.7757 27.0918 86.5376 28.6436 86.8463C30.1955 87.155 31.804 86.9966 33.2658 86.3911C34.7276 85.7856 35.977 84.7602 36.8561 83.4446C37.7351 82.129 38.2044 80.5823 38.2044 79C38.2019 76.879 37.3583 74.8456 35.8585 73.3458C34.3588 71.8461 32.3254 71.0024 30.2044 71Z" fill="black"/>
<path d="M30.2043 84C32.9658 84 35.2043 81.7614 35.2043 79C35.2043 76.2386 32.9658 74 30.2043 74C27.4429 74 25.2043 76.2386 25.2043 79C25.2043 81.7614 27.4429 84 30.2043 84Z" fill="black"/>
<path d="M56.2043 84C58.9658 84 61.2043 81.7614 61.2043 79C61.2043 76.2386 58.9658 74 56.2043 74C53.4429 74 51.2043 76.2386 51.2043 79C51.2043 81.7614 53.4429 84 56.2043 84Z" fill="black"/>
<path d="M82.2043 84C84.9658 84 87.2043 81.7614 87.2043 79C87.2043 76.2386 84.9658 74 82.2043 74C79.4429 74 77.2043 76.2386 77.2043 79C77.2043 81.7614 79.4429 84 82.2043 84Z" fill="black"/>
<path d="M56.2044 89C54.2266 89 52.2931 88.4135 50.6486 87.3147C49.0041 86.2159 47.7224 84.6541 46.9655 82.8268C46.2087 80.9996 46.0107 78.9889 46.3965 77.0491C46.7824 75.1093 47.7347 73.3275 49.1333 71.929C50.5318 70.5304 52.3136 69.578 54.2534 69.1921C56.1932 68.8063 58.2039 69.0044 60.0311 69.7612C61.8584 70.5181 63.4202 71.7998 64.5191 73.4443C65.6179 75.0888 66.2044 77.0222 66.2044 79C66.2014 81.6512 65.1468 84.193 63.2721 86.0677C61.3974 87.9425 58.8556 88.997 56.2044 89ZM56.2044 71C54.6221 71 53.0754 71.4692 51.7598 72.3483C50.4442 73.2273 49.4188 74.4767 48.8133 75.9385C48.2078 77.4004 48.0494 79.0089 48.3581 80.5607C48.6667 82.1126 49.4287 83.538 50.5475 84.6569C51.6663 85.7757 53.0918 86.5376 54.6436 86.8463C56.1955 87.155 57.804 86.9966 59.2658 86.3911C60.7276 85.7856 61.977 84.7602 62.8561 83.4446C63.7351 82.129 64.2044 80.5823 64.2044 79C64.2019 76.879 63.3583 74.8456 61.8585 73.3458C60.3588 71.8461 58.3254 71.0024 56.2044 71Z" fill="black"/>
<path d="M82.2044 89C80.2266 89 78.2931 88.4135 76.6486 87.3147C75.0042 86.2159 73.7224 84.6541 72.9655 82.8268C72.2087 80.9996 72.0107 78.9889 72.3965 77.0491C72.7824 75.1093 73.7347 73.3275 75.1333 71.929C76.5318 70.5304 78.3136 69.578 80.2534 69.1921C82.1933 68.8063 84.2039 69.0044 86.0312 69.7612C87.8584 70.5181 89.4202 71.7998 90.5191 73.4443C91.6179 75.0888 92.2044 77.0222 92.2044 79C92.2014 81.6512 91.1468 84.193 89.2721 86.0677C87.3974 87.9425 84.8556 88.997 82.2044 89ZM82.2044 71C80.6221 71 79.0754 71.4692 77.7598 72.3483C76.4442 73.2273 75.4188 74.4767 74.8133 75.9385C74.2078 77.4004 74.0494 79.0089 74.3581 80.5607C74.6667 82.1126 75.4287 83.538 76.5475 84.6569C77.6663 85.7757 79.0918 86.5376 80.6436 86.8463C82.1955 87.155 83.804 86.9966 85.2658 86.3911C86.7276 85.7856 87.977 84.7602 88.8561 83.4446C89.7351 82.129 90.2044 80.5823 90.2044 79C90.2019 76.879 89.3583 74.8456 87.8585 73.3458C86.3588 71.8461 84.3254 71.0024 82.2044 71Z" fill="black"/>
<path d="M136.204 145.874H6.20435V147.874H136.204V145.874Z" fill="black"/>
<path d="M132.976 186.126H6.20435V188.126H132.976V186.126Z" fill="black"/>
<path d="M406.204 145.874H276.204V147.874H406.204V145.874Z" fill="black"/>
<path d="M405.976 186.126H279.204V188.126H405.976V186.126Z" fill="black"/>
<path d="M272.766 60.7612L139.427 60.2383L152.393 17.1011C153.428 13.7121 155.521 10.7433 158.364 8.62903C161.208 6.51473 164.653 5.3659 168.197 5.35059H168.26L244.365 5.64941C247.919 5.67891 251.37 6.84862 254.21 8.98636C257.049 11.1241 259.128 14.117 260.139 17.5244L272.766 60.7612Z" stroke="black" stroke-width="10" mask="url(#path-1-outside-1_483:138)"/>
<path d="M390.204 287H22.2043C17.6972 286.995 13.3761 285.202 10.1891 282.015C7.00207 278.828 5.20942 274.507 5.20435 270V76C5.20942 71.4929 7.00207 67.1718 10.1891 63.9848C13.3761 60.7978 17.6972 59.0051 22.2043 59H390.204C394.711 59.0051 399.033 60.7978 402.22 63.9848C405.407 67.1718 407.199 71.4929 407.204 76V270C407.199 274.507 405.407 278.828 402.22 282.015C399.033 285.202 394.711 286.995 390.204 287ZM22.2043 61C18.2275 61.0045 14.4147 62.5863 11.6027 65.3984C8.79059 68.2104 7.20885 72.0231 7.20435 76V270C7.20885 273.977 8.79059 277.79 11.6027 280.602C14.4147 283.414 18.2275 284.996 22.2043 285H390.204C394.181 284.996 397.994 283.414 400.806 280.602C403.618 277.79 405.2 273.977 405.204 270V76C405.2 72.0231 403.618 68.2104 400.806 65.3984C397.994 62.5863 394.181 61.0045 390.204 61H22.2043Z" stroke="black" stroke-width="10" mask="url(#path-1-outside-1_483:138)"/>
<path d="M222.204 44.5H190.204C187.95 44.5 185.788 43.6045 184.194 42.0104C182.6 40.4163 181.704 38.2543 181.704 36C181.704 33.7457 182.6 31.5837 184.194 29.9896C185.788 28.3955 187.95 27.5 190.204 27.5H222.204C224.459 27.5 226.621 28.3955 228.215 29.9896C229.809 31.5837 230.704 33.7457 230.704 36C230.704 38.2543 229.809 40.4163 228.215 42.0104C226.621 43.6045 224.459 44.5 222.204 44.5Z" stroke="black" stroke-width="10" mask="url(#path-1-outside-1_483:138)"/>
<path d="M206.204 249C191.173 249 176.479 244.543 163.981 236.192C151.483 227.841 141.742 215.971 135.99 202.084C130.237 188.197 128.732 172.916 131.665 158.173C134.597 143.431 141.836 129.889 152.464 119.26C163.093 108.631 176.635 101.393 191.378 98.4604C206.12 95.5279 221.401 97.0329 235.288 102.785C249.176 108.537 261.045 118.279 269.396 130.777C277.747 143.275 282.204 157.969 282.204 173C282.182 193.149 274.167 212.467 259.919 226.715C245.672 240.963 226.354 248.977 206.204 249ZM206.204 99C191.569 99 177.261 103.34 165.092 111.471C152.923 119.603 143.438 131.16 137.837 144.681C132.236 158.203 130.771 173.082 133.626 187.437C136.482 201.791 143.529 214.977 153.878 225.326C164.228 235.675 177.413 242.723 191.768 245.578C206.122 248.433 221.001 246.968 234.523 241.367C248.045 235.766 259.602 226.281 267.733 214.112C275.864 201.943 280.204 187.636 280.204 173C280.182 153.381 272.379 134.572 258.506 120.699C244.633 106.826 225.824 99.0222 206.204 99Z" stroke="black" stroke-width="10" mask="url(#path-1-outside-1_483:138)"/>
<path d="M206.204 223C196.315 223 186.648 220.068 178.426 214.573C170.203 209.079 163.795 201.27 160.01 192.134C156.226 182.998 155.236 172.945 157.165 163.245C159.094 153.546 163.856 144.637 170.849 137.645C177.841 130.652 186.751 125.89 196.45 123.961C206.149 122.032 216.202 123.022 225.338 126.806C234.475 130.59 242.284 136.999 247.778 145.221C253.272 153.444 256.204 163.111 256.204 173C256.189 186.256 250.917 198.965 241.543 208.339C232.169 217.712 219.46 222.985 206.204 223ZM206.204 125C196.711 125 187.43 127.815 179.537 133.089C171.643 138.364 165.491 145.86 161.858 154.631C158.225 163.402 157.274 173.053 159.126 182.364C160.979 191.675 165.55 200.228 172.263 206.941C178.976 213.654 187.529 218.226 196.84 220.078C206.151 221.93 215.802 220.979 224.573 217.346C233.344 213.713 240.84 207.561 246.115 199.667C251.389 191.774 254.204 182.494 254.204 173C254.19 160.274 249.128 148.073 240.129 139.075C231.131 130.076 218.93 125.014 206.204 125Z" stroke="black" stroke-width="10" mask="url(#path-1-outside-1_483:138)"/>
<path d="M206.204 211C227.191 211 244.204 193.987 244.204 173C244.204 152.013 227.191 135 206.204 135C185.218 135 168.204 152.013 168.204 173C168.204 193.987 185.218 211 206.204 211Z" stroke="black" stroke-width="10" mask="url(#path-1-outside-1_483:138)"/>
<path d="M183.204 173C183.205 166.976 185.381 161.156 189.331 156.608C193.281 152.061 198.74 149.093 204.704 148.249C201.159 147.745 197.548 148.008 194.113 149.021C190.679 150.034 187.503 151.772 184.798 154.119C182.094 156.466 179.926 159.366 178.44 162.623C176.954 165.881 176.185 169.42 176.185 173C176.185 176.58 176.954 180.119 178.44 183.377C179.926 186.634 182.094 189.534 184.798 191.881C187.503 194.228 190.679 195.966 194.113 196.979C197.548 197.992 201.159 198.255 204.704 197.751C198.74 196.907 193.281 193.939 189.331 189.392C185.381 184.844 183.205 179.023 183.204 173Z" stroke="black" stroke-width="10" mask="url(#path-1-outside-1_483:138)"/>
<path d="M372.204 61H322.204V60C322.204 53.3696 324.838 47.0107 329.527 42.3223C334.215 37.6339 340.574 35 347.204 35C353.835 35 360.194 37.6339 364.882 42.3223C369.57 47.0107 372.204 53.3696 372.204 60V61ZM324.226 59H370.183C369.925 53.0788 367.391 47.4857 363.11 43.387C358.829 39.2883 353.131 37.0004 347.204 37.0004C341.277 37.0004 335.579 39.2883 331.298 43.387C327.017 47.4857 324.484 53.0788 324.226 59Z" stroke="black" stroke-width="10" mask="url(#path-1-outside-1_483:138)"/>
<path d="M30.2044 89C28.2266 89 26.2931 88.4135 24.6486 87.3147C23.0041 86.2159 21.7224 84.6541 20.9655 82.8268C20.2087 80.9996 20.0107 78.9889 20.3965 77.0491C20.7824 75.1093 21.7347 73.3275 23.1333 71.929C24.5318 70.5304 26.3136 69.578 28.2534 69.1921C30.1932 68.8063 32.2039 69.0044 34.0311 69.7612C35.8584 70.5181 37.4202 71.7998 38.5191 73.4443C39.6179 75.0888 40.2044 77.0222 40.2044 79C40.2014 81.6512 39.1468 84.193 37.2721 86.0677C35.3974 87.9425 32.8556 88.997 30.2044 89ZM30.2044 71C28.6221 71 27.0754 71.4692 25.7598 72.3483C24.4442 73.2273 23.4188 74.4767 22.8133 75.9385C22.2078 77.4004 22.0494 79.0089 22.3581 80.5607C22.6667 82.1126 23.4287 83.538 24.5475 84.6569C25.6663 85.7757 27.0918 86.5376 28.6436 86.8463C30.1955 87.155 31.804 86.9966 33.2658 86.3911C34.7276 85.7856 35.977 84.7602 36.8561 83.4446C37.7351 82.129 38.2044 80.5823 38.2044 79C38.2019 76.879 37.3583 74.8456 35.8585 73.3458C34.3588 71.8461 32.3254 71.0024 30.2044 71Z" stroke="black" stroke-width="10" mask="url(#path-1-outside-1_483:138)"/>
<path d="M30.2043 84C32.9658 84 35.2043 81.7614 35.2043 79C35.2043 76.2386 32.9658 74 30.2043 74C27.4429 74 25.2043 76.2386 25.2043 79C25.2043 81.7614 27.4429 84 30.2043 84Z" stroke="black" stroke-width="10" mask="url(#path-1-outside-1_483:138)"/>
<path d="M56.2043 84C58.9658 84 61.2043 81.7614 61.2043 79C61.2043 76.2386 58.9658 74 56.2043 74C53.4429 74 51.2043 76.2386 51.2043 79C51.2043 81.7614 53.4429 84 56.2043 84Z" stroke="black" stroke-width="10" mask="url(#path-1-outside-1_483:138)"/>
<path d="M82.2043 84C84.9658 84 87.2043 81.7614 87.2043 79C87.2043 76.2386 84.9658 74 82.2043 74C79.4429 74 77.2043 76.2386 77.2043 79C77.2043 81.7614 79.4429 84 82.2043 84Z" stroke="black" stroke-width="10" mask="url(#path-1-outside-1_483:138)"/>
<path d="M56.2044 89C54.2266 89 52.2931 88.4135 50.6486 87.3147C49.0041 86.2159 47.7224 84.6541 46.9655 82.8268C46.2087 80.9996 46.0107 78.9889 46.3965 77.0491C46.7824 75.1093 47.7347 73.3275 49.1333 71.929C50.5318 70.5304 52.3136 69.578 54.2534 69.1921C56.1932 68.8063 58.2039 69.0044 60.0311 69.7612C61.8584 70.5181 63.4202 71.7998 64.5191 73.4443C65.6179 75.0888 66.2044 77.0222 66.2044 79C66.2014 81.6512 65.1468 84.193 63.2721 86.0677C61.3974 87.9425 58.8556 88.997 56.2044 89ZM56.2044 71C54.6221 71 53.0754 71.4692 51.7598 72.3483C50.4442 73.2273 49.4188 74.4767 48.8133 75.9385C48.2078 77.4004 48.0494 79.0089 48.3581 80.5607C48.6667 82.1126 49.4287 83.538 50.5475 84.6569C51.6663 85.7757 53.0918 86.5376 54.6436 86.8463C56.1955 87.155 57.804 86.9966 59.2658 86.3911C60.7276 85.7856 61.977 84.7602 62.8561 83.4446C63.7351 82.129 64.2044 80.5823 64.2044 79C64.2019 76.879 63.3583 74.8456 61.8585 73.3458C60.3588 71.8461 58.3254 71.0024 56.2044 71Z" stroke="black" stroke-width="10" mask="url(#path-1-outside-1_483:138)"/>
<path d="M82.2044 89C80.2266 89 78.2931 88.4135 76.6486 87.3147C75.0042 86.2159 73.7224 84.6541 72.9655 82.8268C72.2087 80.9996 72.0107 78.9889 72.3965 77.0491C72.7824 75.1093 73.7347 73.3275 75.1333 71.929C76.5318 70.5304 78.3136 69.578 80.2534 69.1921C82.1933 68.8063 84.2039 69.0044 86.0312 69.7612C87.8584 70.5181 89.4202 71.7998 90.5191 73.4443C91.6179 75.0888 92.2044 77.0222 92.2044 79C92.2014 81.6512 91.1468 84.193 89.2721 86.0677C87.3974 87.9425 84.8556 88.997 82.2044 89ZM82.2044 71C80.6221 71 79.0754 71.4692 77.7598 72.3483C76.4442 73.2273 75.4188 74.4767 74.8133 75.9385C74.2078 77.4004 74.0494 79.0089 74.3581 80.5607C74.6667 82.1126 75.4287 83.538 76.5475 84.6569C77.6663 85.7757 79.0918 86.5376 80.6436 86.8463C82.1955 87.155 83.804 86.9966 85.2658 86.3911C86.7276 85.7856 87.977 84.7602 88.8561 83.4446C89.7351 82.129 90.2044 80.5823 90.2044 79C90.2019 76.879 89.3583 74.8456 87.8585 73.3458C86.3588 71.8461 84.3254 71.0024 82.2044 71Z" stroke="black" stroke-width="10" mask="url(#path-1-outside-1_483:138)"/>
<path d="M136.204 145.874H6.20435V147.874H136.204V145.874Z" stroke="black" stroke-width="10" mask="url(#path-1-outside-1_483:138)"/>
<path d="M132.976 186.126H6.20435V188.126H132.976V186.126Z" stroke="black" stroke-width="10" mask="url(#path-1-outside-1_483:138)"/>
<path d="M406.204 145.874H276.204V147.874H406.204V145.874Z" stroke="black" stroke-width="10" mask="url(#path-1-outside-1_483:138)"/>
<path d="M405.976 186.126H279.204V188.126H405.976V186.126Z" stroke="black" stroke-width="10" mask="url(#path-1-outside-1_483:138)"/>
</svg>
