<svg width="320" height="376" viewBox="0 0 320 376" fill="none" xmlns="http://www.w3.org/2000/svg">
<path d="M92.2518 67.127C110.888 45.2117 145.001 46.1078 162.46 68.9715C178.213 89.601 208.085 92.7102 227.749 75.7671L300.363 13.2017C332.771 -14.7215 383 8.30247 383 51.0807V325.075C383 355.597 355.891 378.997 325.697 374.539L266.071 365.735C246.561 362.855 230.567 348.775 225.236 329.789L198.863 235.866C192.169 212.028 160.132 207.909 147.626 229.279C140.645 241.208 126.017 246.277 113.152 241.226L104.01 237.637C83.9965 229.78 61.3721 239.356 53.0795 259.193L34.6307 303.327C13.0985 354.837 -63.8534 337.672 -61.4548 281.895L-57 178.301V112.801L-58.7131 82.0374C-61.196 37.4504 1.29725 24.7688 16.391 66.7966C26.4528 94.8129 63.0477 101.47 82.3318 78.7927L92.2518 67.127Z" fill="#D0CCDA"/>
</svg>
